<mxfile host="app.diagrams.net" modified="2023-11-29T15:20:28.261Z" agent="Mozilla/5.0 (Windows NT 10.0; Win64; x64) AppleWebKit/537.36 (KHTML, like Gecko) Chrome/119.0.0.0 Safari/537.36" version="22.1.5" etag="ox2ozDWFWvS2FWY_bX69" type="github">
  <diagram name="PÃ¡gina-1" id="M9Ju91JwieOVPj-9EZEE">
    <mxGraphModel>
      <root>
        <mxCell id="0" />
        <mxCell id="1" parent="0" />
      </root>
    </mxGraphModel>
  </diagram>
</mxfile>
